<?xml version="1.0" encoding="UTF-8" ?>
<!DOCTYPE svg PUBLIC "-//W3C//DTD SVG 1.1//EN" "http://www.w3.org/Graphics/SVG/1.1/DTD/svg11.dtd">
<svg width="1227pt" height="341pt" viewBox="0 0 1227 341" version="1.1" xmlns="http://www.w3.org/2000/svg">
<g id="#f7f7f7ff">
</g>
<g id="#fd8b02ff">
<path fill="#fd8b02" opacity="1.00" d=" M 186.14 6.26 C 187.86 5.03 189.59 3.33 191.89 3.57 C 208.94 3.57 226.00 3.56 243.05 3.57 C 247.93 3.12 249.93 8.49 252.80 11.43 C 257.30 17.46 262.30 23.13 266.47 29.40 C 242.18 29.09 218.01 37.18 198.72 51.91 C 172.20 71.65 156.35 104.79 157.44 137.80 C 157.37 140.95 157.43 144.29 159.52 146.86 L 157.89 145.70 C 159.73 160.04 163.84 174.22 171.16 186.77 C 182.10 206.35 199.52 222.15 219.97 231.32 C 223.92 232.95 228.03 234.21 231.85 236.15 C 232.79 236.73 233.91 236.61 234.95 236.45 C 235.63 236.38 236.99 236.23 237.67 236.16 L 237.00 237.25 C 246.19 239.54 255.64 240.28 265.09 239.72 C 261.65 233.66 258.33 227.16 258.34 220.02 C 258.09 207.36 258.16 194.68 258.28 182.01 C 258.19 175.03 260.67 168.25 264.40 162.42 C 268.60 156.15 275.41 152.10 282.54 150.00 C 293.05 146.64 304.20 147.59 315.06 147.45 C 324.61 147.55 334.43 146.78 343.64 149.86 C 352.90 152.36 361.41 158.72 365.13 167.74 C 369.87 178.18 368.38 189.91 368.65 201.03 C 368.41 212.15 369.84 224.03 364.40 234.23 C 359.73 244.95 348.18 250.48 337.19 252.24 C 331.02 252.84 324.85 253.62 318.64 253.55 C 318.54 254.19 318.34 255.48 318.24 256.12 C 229.86 256.11 141.48 256.06 53.10 256.14 C 40.62 232.53 27.66 209.17 15.15 185.57 C 9.93 176.62 5.75 167.07 0.00 158.42 L 0.00 155.03 L 0.01 156.65 C 2.99 154.13 5.82 151.36 9.18 149.32 C 12.12 153.44 13.99 158.19 16.48 162.58 C 32.50 192.29 48.46 222.01 64.46 251.73 C 67.74 251.71 71.02 251.71 74.29 251.64 C 70.49 243.25 65.72 235.36 61.51 227.18 C 51.86 209.54 42.50 191.75 32.79 174.15 C 28.50 165.32 23.39 156.93 18.82 148.24 C 18.12 146.50 16.65 144.53 17.48 142.60 C 20.76 139.14 24.72 136.36 28.81 133.92 C 49.71 173.23 71.11 212.27 92.01 251.58 C 96.14 251.68 100.27 251.71 104.40 251.67 C 102.87 247.71 100.93 243.93 98.81 240.27 C 78.87 203.64 59.29 166.82 39.38 130.18 C 38.87 128.88 37.96 127.57 38.27 126.12 C 40.62 123.24 43.87 121.29 46.61 118.83 C 49.37 116.69 51.86 113.59 55.63 113.46 C 57.15 118.41 59.84 122.86 62.39 127.33 C 75.57 152.22 88.94 177.00 102.38 201.76 C 111.06 218.45 120.53 234.72 128.89 251.57 C 131.96 251.62 135.03 251.63 138.11 251.58 C 134.85 244.05 130.30 237.19 126.76 229.81 L 125.51 233.81 C 125.25 230.93 125.87 227.85 124.23 225.28 C 116.54 210.87 108.62 196.58 101.06 182.09 C 99.81 179.73 98.38 177.47 96.93 175.23 C 86.93 155.21 75.70 135.82 65.39 115.95 C 53.54 94.54 42.46 72.72 30.33 51.48 C 44.57 62.99 58.87 74.47 73.18 85.91 C 101.62 109.06 130.63 131.49 158.97 154.74 C 158.29 151.26 157.75 147.74 156.81 144.31 C 149.46 139.41 142.90 133.46 135.91 128.09 C 119.07 114.68 102.40 101.04 85.42 87.82 C 118.74 60.32 152.74 33.65 186.14 6.26 M 284.53 175.54 C 282.15 180.66 282.32 186.46 282.36 191.99 C 282.57 200.83 281.96 209.71 282.67 218.52 C 283.17 224.15 286.58 229.19 291.81 231.44 C 301.38 233.62 311.25 232.41 320.97 232.73 C 326.14 233.01 331.26 232.26 336.29 231.15 C 336.43 230.58 336.71 229.45 336.84 228.88 C 337.48 228.84 338.74 228.74 339.37 228.70 C 343.53 224.20 344.36 217.86 344.34 211.98 C 344.28 204.32 344.38 196.66 344.31 189.00 C 344.08 183.89 343.60 178.64 341.27 174.00 C 336.79 168.78 329.57 167.62 323.05 167.56 C 314.07 167.65 305.08 167.39 296.10 167.85 C 291.62 169.14 286.64 171.00 284.53 175.54 M 276.72 247.72 C 277.97 249.02 279.16 250.41 280.61 251.50 C 283.48 251.41 286.34 251.41 289.21 251.32 C 287.28 246.07 281.00 247.68 276.72 247.72 Z" />
<path fill="#fd8b02" opacity="1.00" d=" M 380.56 148.56 C 388.02 148.55 395.49 148.57 402.95 148.51 C 407.19 148.47 411.51 149.07 415.43 150.77 C 420.08 153.98 422.76 159.13 425.08 164.13 C 430.30 174.23 435.40 184.41 440.44 194.61 C 446.35 205.27 451.28 216.44 457.10 227.14 C 457.75 227.43 459.04 228.01 459.68 228.31 C 459.63 227.17 459.52 224.91 459.46 223.78 C 458.36 218.86 458.91 213.79 458.21 208.83 C 457.28 202.94 457.59 196.96 457.54 191.02 C 457.57 176.89 457.48 162.76 457.59 148.63 C 465.59 148.53 473.60 148.57 481.60 148.54 C 481.91 182.93 481.70 217.33 481.71 251.72 C 472.13 251.72 462.53 251.87 452.95 251.50 C 446.37 251.20 441.81 245.65 439.09 240.19 C 431.39 224.28 422.96 208.73 415.32 192.79 C 411.66 186.28 408.61 179.43 404.86 172.98 C 404.24 172.74 403.00 172.26 402.38 172.02 C 403.35 182.32 404.68 192.61 404.58 202.98 C 404.64 219.20 404.64 235.43 404.59 251.66 C 396.56 251.71 388.52 251.79 380.49 251.60 C 380.54 217.26 380.41 182.91 380.56 148.56 Z" />
<path fill="#fd8b02" opacity="1.00" d=" M 488.98 148.65 C 520.90 148.44 552.82 148.66 584.73 148.54 C 584.69 153.49 583.99 158.40 583.26 163.29 C 582.86 165.52 581.05 167.03 579.54 168.55 C 569.50 168.51 559.46 168.69 549.42 168.54 C 549.35 196.21 549.40 223.88 549.40 251.55 C 541.14 251.82 532.86 251.75 524.60 251.61 C 524.41 223.93 524.67 196.24 524.47 168.56 C 514.28 168.63 504.10 168.66 493.92 168.49 C 488.96 163.78 489.94 156.39 488.57 150.26 L 487.54 150.81 C 488.02 150.09 488.50 149.37 488.98 148.65 Z" />
<path fill="#fd8b02" opacity="1.00" d=" M 592.13 148.52 C 622.00 148.60 651.86 148.58 681.72 148.54 C 681.90 154.48 680.62 160.32 679.23 166.06 C 678.22 166.89 677.23 167.72 676.25 168.56 C 656.36 168.62 636.48 168.62 616.60 168.56 C 615.62 175.51 615.61 182.54 616.58 189.49 C 636.30 189.49 656.01 189.48 675.73 189.49 C 675.62 193.40 674.76 197.22 674.31 201.09 C 674.00 202.46 673.72 203.84 673.48 205.22 C 672.42 206.32 671.79 208.53 669.89 207.94 C 669.72 208.07 669.38 208.34 669.21 208.48 C 651.64 208.50 634.08 208.54 616.51 208.48 C 616.85 215.32 615.31 222.49 617.62 229.08 C 618.63 229.87 619.65 230.68 620.67 231.49 C 639.78 231.87 658.91 231.59 678.04 231.64 C 679.45 232.72 681.10 233.64 682.07 235.20 C 683.93 240.49 683.75 246.17 683.88 251.70 C 663.25 251.71 642.62 251.71 621.99 251.71 C 618.27 251.79 614.56 251.63 610.87 251.28 C 604.07 250.21 597.88 246.21 594.57 240.12 C 591.97 234.45 591.76 228.13 591.69 222.00 C 591.70 201.01 591.69 180.02 591.73 159.03 C 591.67 155.52 591.60 152.00 592.13 148.52 Z" />
<path fill="#fd8b02" opacity="1.00" d=" M 697.64 148.65 C 718.45 148.49 739.27 148.58 760.08 148.60 C 770.55 148.79 782.15 152.14 788.26 161.25 C 793.52 169.05 792.82 178.77 792.63 187.72 C 792.54 190.55 791.91 193.31 791.34 196.07 C 789.32 200.28 786.51 204.02 783.01 207.11 C 781.71 207.78 780.42 208.48 779.18 209.23 C 774.19 211.09 769.02 212.55 763.65 212.65 C 764.67 213.93 765.88 215.01 767.29 215.90 C 773.41 222.41 778.78 229.58 784.79 236.20 C 788.66 241.56 793.68 245.99 797.29 251.55 C 789.54 251.83 781.78 251.61 774.03 251.74 C 771.05 251.60 767.61 252.23 765.20 250.05 C 761.88 247.27 759.50 243.59 756.57 240.44 C 750.50 232.79 744.16 225.35 737.97 217.79 C 736.53 216.21 735.71 214.15 735.69 212.02 C 735.41 206.81 735.54 201.60 735.58 196.39 C 743.32 196.32 751.07 196.48 758.81 196.28 C 762.20 196.24 764.98 194.20 767.48 192.13 C 768.28 186.25 768.94 180.13 767.63 174.28 C 766.37 170.61 762.49 169.32 759.03 168.69 C 746.83 168.45 734.64 168.69 722.45 168.61 C 722.12 196.05 722.51 223.50 722.26 250.95 C 721.66 251.85 721.09 252.78 720.53 253.70 L 720.89 252.22 C 713.11 252.00 705.25 252.85 697.53 251.73 C 697.70 217.37 697.49 183.01 697.64 148.65 Z" />
<path fill="#fd8b02" opacity="1.00" d=" M 805.55 148.58 C 826.69 148.59 847.85 148.48 868.99 148.63 C 878.62 149.64 888.83 153.08 894.80 161.16 C 897.57 166.31 899.95 171.98 899.78 177.96 C 899.71 183.92 900.19 189.95 899.31 195.87 C 897.58 202.46 894.26 209.24 888.20 212.84 C 885.39 214.71 882.27 216.00 879.16 217.25 C 862.88 220.80 846.16 218.68 829.67 219.49 C 829.74 230.22 829.70 240.95 829.71 251.68 C 821.62 251.67 813.53 251.78 805.44 251.66 C 805.47 217.30 805.28 182.94 805.55 148.58 M 829.72 168.66 C 829.63 176.77 829.81 184.87 829.65 192.98 C 829.55 195.15 829.85 197.30 830.24 199.43 C 841.48 199.13 852.73 199.48 863.97 199.27 C 868.92 199.15 874.44 196.30 875.21 190.98 C 875.47 185.48 876.01 179.76 874.31 174.43 C 873.30 171.15 869.87 170.00 867.10 168.68 C 854.64 168.56 842.18 168.57 829.72 168.66 Z" />
<path fill="#fd8b02" opacity="1.00" d=" M 911.72 148.57 C 919.91 148.58 928.10 148.44 936.29 148.64 C 936.46 175.14 936.04 201.66 936.52 228.15 C 937.62 229.26 938.73 230.37 939.85 231.48 C 953.91 231.95 968.00 231.50 982.07 231.69 C 984.46 231.80 986.78 232.39 989.14 232.80 C 990.18 236.00 991.05 239.25 991.68 242.56 C 992.06 242.64 992.82 242.81 993.20 242.90 C 997.80 231.25 1004.14 220.37 1008.74 208.72 C 1014.71 197.40 1019.68 185.59 1025.20 174.06 C 1028.58 166.81 1032.01 159.58 1035.51 152.39 C 1036.35 150.49 1038.29 149.55 1039.92 148.42 C 1045.31 148.39 1050.72 148.25 1056.12 148.50 C 1057.54 148.85 1058.93 149.20 1060.38 149.56 C 1065.61 157.50 1068.94 166.50 1072.81 175.14 C 1077.98 184.53 1081.81 194.61 1086.71 204.15 C 1092.00 215.82 1097.56 227.35 1102.91 238.99 C 1104.88 243.19 1106.88 247.37 1108.86 251.57 C 1100.41 251.74 1091.94 251.89 1083.50 251.48 C 1079.31 248.55 1078.03 243.45 1076.03 239.04 C 1074.37 235.27 1072.52 231.56 1071.24 227.63 C 1056.52 227.43 1041.80 227.65 1027.09 227.49 C 1023.93 233.84 1021.19 240.38 1018.21 246.81 C 1017.36 248.68 1015.85 250.12 1014.41 251.54 C 1002.94 252.00 991.44 251.33 979.98 251.98 C 962.97 251.16 945.90 252.34 928.89 251.29 C 924.98 249.72 920.99 248.02 917.99 244.97 C 915.65 242.76 914.40 239.74 913.05 236.89 C 911.96 232.33 911.63 227.65 911.71 222.97 C 911.75 198.17 911.68 173.37 911.72 148.57 M 1048.96 174.04 C 1048.67 174.72 1048.08 176.08 1047.79 176.76 C 1044.68 187.83 1038.77 197.78 1035.01 208.60 C 1044.32 208.65 1053.63 208.81 1062.94 208.50 C 1058.75 197.91 1053.45 187.75 1050.11 176.85 C 1049.71 175.91 1049.35 174.98 1048.96 174.04 Z" />
<path fill="#fd8b02" opacity="1.00" d=" M 1114.45 148.59 C 1122.63 148.55 1130.82 148.50 1139.01 148.54 C 1143.30 148.47 1147.39 150.01 1151.19 151.88 C 1157.05 158.21 1159.91 166.50 1163.98 173.97 C 1171.55 189.01 1179.15 204.04 1186.78 219.05 C 1189.22 222.03 1189.32 227.41 1193.68 228.18 C 1193.78 222.67 1192.43 217.29 1192.41 211.80 C 1190.92 202.61 1191.74 193.23 1191.53 183.96 C 1191.55 172.17 1191.46 160.38 1191.57 148.59 C 1199.59 148.60 1207.61 148.51 1215.63 148.57 C 1215.83 182.94 1215.49 217.32 1215.79 251.69 C 1210.83 251.36 1205.89 252.47 1200.96 251.87 C 1195.59 251.38 1190.15 252.12 1184.82 251.30 C 1179.47 250.01 1175.69 245.45 1173.30 240.76 C 1165.43 224.71 1157.04 208.92 1149.15 192.89 C 1145.22 186.02 1142.19 178.68 1138.16 171.88 C 1137.73 171.81 1136.86 171.66 1136.43 171.59 C 1136.32 176.35 1136.51 181.13 1137.46 185.81 C 1139.19 200.81 1138.49 215.91 1138.62 230.97 C 1138.54 238.08 1138.78 245.20 1138.45 252.30 C 1130.50 252.24 1122.55 252.23 1114.60 252.29 C 1114.09 217.74 1114.36 183.15 1114.45 148.59 Z" />
</g>
<g id="#08070aff">
<path fill="#08070a" opacity="1.00" d=" M 252.80 11.43 C 257.27 11.43 261.75 11.42 266.23 11.49 C 273.14 19.99 279.74 28.74 286.69 37.21 C 275.10 36.98 263.45 38.47 252.43 42.14 C 229.83 49.02 210.01 64.17 196.97 83.81 C 183.01 104.81 177.10 130.98 180.58 155.95 C 172.89 149.89 165.44 143.47 157.44 137.80 C 156.35 104.79 172.20 71.65 198.72 51.91 C 218.01 37.18 242.18 29.09 266.47 29.40 C 262.30 23.13 257.30 17.46 252.80 11.43 Z" />
<path fill="#08070a" opacity="1.00" d=" M 157.89 145.70 L 159.52 146.86 C 166.31 151.87 172.69 157.41 179.40 162.54 C 181.77 173.82 185.47 184.91 191.20 194.94 C 201.27 212.61 216.42 227.82 234.95 236.45 C 233.91 236.61 232.79 236.73 231.85 236.15 C 228.03 234.21 223.92 232.95 219.97 231.32 C 199.52 222.15 182.10 206.35 171.16 186.77 C 163.84 174.22 159.73 160.04 157.89 145.70 Z" />
<path fill="#08070a" opacity="1.00" d=" M 276.72 247.72 C 281.00 247.68 287.28 246.07 289.21 251.32 C 286.34 251.41 283.48 251.41 280.61 251.50 C 279.16 250.41 277.97 249.02 276.72 247.72 Z" />
<path fill="#08070a" opacity="1.00" d=" M 53.10 256.14 C 141.48 256.06 229.86 256.11 318.24 256.12 C 475.51 256.10 632.78 256.12 790.05 256.11 C 934.10 256.17 1078.16 256.00 1222.21 256.19 C 1222.16 258.92 1222.13 261.65 1222.03 264.38 C 943.69 264.37 665.35 264.37 387.01 264.38 C 358.99 264.52 330.95 264.02 302.94 264.72 C 221.23 264.68 139.52 264.72 57.81 264.70 C 56.20 261.87 54.60 259.03 53.10 256.14 Z" />
<path fill="#08070a" opacity="1.00" d=" M 383.48 272.44 C 388.20 271.03 391.83 275.16 396.40 274.56 C 396.37 274.00 396.29 272.88 396.26 272.32 C 397.70 272.32 399.16 272.32 400.61 272.36 C 399.60 274.99 398.39 278.52 395.12 278.87 C 392.04 279.49 389.55 277.34 386.89 276.26 C 384.86 275.65 384.21 278.05 383.01 279.11 C 382.24 279.17 380.70 279.28 379.92 279.33 C 380.49 276.75 381.66 274.36 383.48 272.44 Z" />
<path fill="#08070a" opacity="1.00" d=" M 69.99 282.79 C 74.02 282.35 78.07 282.43 82.10 282.76 C 84.37 283.26 86.63 283.78 88.91 284.27 L 89.63 284.45 C 89.36 286.52 89.08 288.60 88.74 290.68 C 83.51 287.44 77.12 285.35 70.97 286.82 C 68.05 287.73 66.23 290.32 64.69 292.80 C 62.55 300.31 62.82 309.44 68.52 315.37 C 74.14 320.49 82.84 319.70 89.22 316.53 C 89.33 317.86 89.41 319.20 89.52 320.54 C 83.95 323.95 77.28 324.09 70.97 323.48 C 64.88 322.54 59.75 317.97 57.90 312.11 C 54.38 302.53 55.93 288.97 66.19 284.22 C 67.44 283.70 68.74 283.32 69.99 282.79 Z" />
<path fill="#08070a" opacity="1.00" d=" M 103.83 284.62 C 109.77 282.30 116.74 281.31 122.64 284.26 C 127.30 286.22 130.17 290.67 132.06 295.15 C 132.97 300.33 132.98 305.68 132.09 310.86 C 129.12 318.54 121.45 324.40 113.01 323.71 C 105.57 324.60 98.76 319.69 95.59 313.20 C 93.60 307.31 93.40 301.06 94.90 295.04 C 96.70 290.70 99.85 287.09 103.83 284.62 M 103.00 292.84 C 100.66 298.55 101.06 305.19 103.14 310.93 C 103.65 312.02 104.14 313.13 104.65 314.24 C 107.85 318.37 113.65 320.94 118.68 318.66 C 122.66 317.14 124.15 312.84 125.34 309.13 C 125.39 306.38 125.38 303.62 125.32 300.88 C 124.30 295.33 121.60 289.37 115.92 287.32 C 111.00 285.15 104.98 287.95 103.00 292.84 Z" />
<path fill="#08070a" opacity="1.00" d=" M 254.45 282.76 C 260.89 282.69 267.42 281.88 273.79 283.17 C 275.29 283.69 276.78 284.25 278.28 284.79 L 278.52 285.14 C 284.56 289.95 283.38 300.09 276.84 303.94 C 275.03 304.58 273.22 305.26 271.40 305.88 C 271.49 306.17 271.67 306.75 271.76 307.03 C 276.66 312.46 281.68 317.78 286.34 323.41 C 283.56 323.51 280.79 323.53 278.02 323.46 C 273.54 317.64 268.77 312.04 264.27 306.24 C 264.28 305.38 264.29 303.66 264.30 302.81 C 267.03 302.56 270.26 303.32 272.53 301.36 C 276.52 298.12 276.83 290.75 272.40 287.75 C 269.09 285.68 264.97 286.46 261.27 286.33 C 261.04 293.21 261.45 300.10 260.84 306.96 C 260.43 312.48 261.83 318.00 260.84 323.50 C 258.68 323.50 256.53 323.51 254.37 323.52 C 254.38 309.93 254.23 296.34 254.45 282.76 Z" />
<path fill="#08070a" opacity="1.00" d=" M 291.58 282.72 C 293.86 282.72 296.15 282.72 298.43 282.72 C 298.73 293.15 297.93 303.62 298.89 314.02 C 302.00 321.41 315.07 321.55 316.66 313.01 C 317.78 302.97 316.97 292.78 316.28 282.72 C 318.40 282.72 320.52 282.70 322.65 282.65 C 323.58 286.39 323.16 290.26 323.23 294.07 C 323.16 299.36 323.41 304.65 323.03 309.93 C 322.71 314.08 321.39 318.48 317.77 320.93 C 313.29 324.36 307.34 323.85 302.05 323.51 C 297.21 323.04 293.26 319.45 291.85 314.88 C 291.19 304.18 291.66 293.43 291.58 282.72 Z" />
<path fill="#08070a" opacity="1.00" d=" M 448.95 288.01 C 454.45 280.92 464.53 281.85 472.29 283.79 C 472.12 285.86 471.90 287.92 471.71 290.00 C 467.05 286.02 458.81 284.18 454.57 289.67 C 454.58 291.32 454.57 292.98 454.56 294.64 C 458.83 300.26 467.12 299.22 472.05 303.97 C 473.88 305.52 474.60 307.89 474.93 310.18 C 475.01 310.60 475.18 311.45 475.27 311.87 C 474.70 313.97 474.59 316.28 473.32 318.13 C 471.88 320.53 469.28 321.81 466.94 323.15 C 461.70 323.92 456.30 323.99 451.09 323.00 C 449.91 322.67 448.72 322.37 447.54 322.10 C 447.68 319.81 447.22 317.31 448.49 315.26 C 452.93 318.67 459.27 321.22 464.69 318.68 C 468.32 317.08 468.15 312.24 467.02 309.09 C 463.19 305.55 457.67 305.03 453.10 302.89 C 450.70 301.07 448.15 298.89 448.09 295.61 L 447.53 295.46 C 447.66 294.02 447.78 292.59 448.04 291.17 C 448.35 290.12 448.66 289.07 448.95 288.01 Z" />
<path fill="#08070a" opacity="1.00" d=" M 615.37 282.71 C 621.28 282.59 627.20 282.28 633.11 282.71 C 637.40 283.60 641.27 285.98 643.13 290.10 C 643.31 292.42 643.32 294.76 643.35 297.10 C 643.20 297.22 642.89 297.46 642.74 297.59 C 641.38 302.23 636.76 304.62 632.43 305.86 C 632.46 306.16 632.51 306.78 632.53 307.09 C 635.56 310.50 638.78 313.75 641.76 317.22 C 643.52 319.30 645.35 321.33 647.08 323.45 C 644.35 323.51 641.61 323.51 638.88 323.50 C 634.50 318.02 630.10 312.57 625.65 307.16 C 625.33 306.41 625.01 305.66 624.70 304.92 C 625.01 304.20 625.32 303.50 625.63 302.79 C 627.80 302.76 629.97 302.61 632.14 302.42 C 633.25 301.40 634.35 300.34 635.41 299.25 C 636.43 295.74 636.97 291.50 634.30 288.57 C 630.83 285.51 625.87 286.39 621.64 286.45 C 621.69 298.80 621.66 311.15 621.66 323.50 C 619.53 323.51 617.40 323.52 615.28 323.55 C 615.28 309.94 615.11 296.32 615.37 282.71 Z" />
<path fill="#08070a" opacity="1.00" d=" M 653.54 282.77 C 660.93 282.80 668.72 281.32 675.77 284.20 C 681.27 286.43 683.05 293.62 680.67 298.71 C 679.53 301.18 677.23 302.78 675.12 304.37 C 673.48 304.90 671.83 305.45 670.19 305.96 C 670.63 306.47 671.52 307.50 671.96 308.01 C 672.55 308.74 673.15 309.47 673.74 310.21 C 677.12 314.25 680.93 317.90 684.31 321.95 C 684.48 322.34 684.82 323.13 685.00 323.52 C 682.33 323.52 679.67 323.52 677.02 323.43 C 672.79 317.71 668.12 312.31 663.62 306.81 C 663.53 305.47 663.47 304.13 663.43 302.79 C 666.54 302.71 670.30 303.21 672.57 300.54 C 675.39 297.75 674.57 293.55 674.20 290.01 C 670.76 285.88 665.17 286.11 660.30 286.33 C 660.20 298.72 660.32 311.10 660.25 323.48 C 657.99 323.50 655.73 323.52 653.48 323.55 C 653.54 309.96 653.41 296.36 653.54 282.77 Z" />
<path fill="#08070a" opacity="1.00" d=" M 1117.87 282.89 C 1125.03 282.39 1132.24 282.39 1139.42 282.72 L 1139.46 283.34 C 1140.63 283.47 1141.80 283.66 1142.98 283.90 C 1146.49 285.65 1149.55 288.26 1151.21 291.90 C 1151.53 292.92 1151.89 293.93 1152.28 294.94 C 1152.86 299.63 1152.81 304.38 1152.35 309.09 C 1151.79 310.31 1151.30 311.56 1150.81 312.81 C 1148.24 317.98 1143.21 321.24 1137.94 323.18 C 1131.24 324.08 1124.45 323.72 1117.72 323.53 C 1117.84 309.98 1117.53 296.43 1117.87 282.89 M 1124.46 286.30 C 1124.44 297.23 1124.35 308.17 1124.50 319.10 C 1131.30 320.08 1140.63 320.54 1143.85 312.95 C 1145.96 307.06 1145.71 300.67 1144.33 294.66 C 1143.06 292.39 1141.68 290.05 1139.37 288.71 C 1134.96 285.82 1129.48 286.15 1124.46 286.30 Z" />
<path fill="#08070a" opacity="1.00" d=" M 141.62 282.71 C 144.05 282.79 146.55 282.44 148.94 282.91 C 155.85 292.71 162.13 302.97 169.20 312.66 C 169.56 302.68 169.22 292.69 169.39 282.70 C 171.14 282.70 172.89 282.70 174.64 282.68 C 174.72 296.31 174.69 309.94 174.68 323.56 C 172.50 323.51 170.34 323.48 168.17 323.38 C 161.86 313.11 154.69 303.38 148.12 293.28 C 147.78 293.31 147.11 293.37 146.77 293.40 C 146.83 297.93 146.72 302.47 146.94 307.00 C 146.67 312.51 146.88 318.03 146.77 323.54 C 145.04 323.52 143.31 323.50 141.59 323.50 C 141.62 309.90 141.56 296.31 141.62 282.71 Z" />
<path fill="#08070a" opacity="1.00" d=" M 183.75 291.92 C 184.59 287.49 187.97 284.39 192.08 282.90 C 196.02 282.37 200.03 282.36 203.98 282.83 C 205.24 283.19 206.51 283.50 207.79 283.77 C 207.73 285.81 207.66 287.85 207.59 289.90 C 203.52 286.81 197.70 284.81 192.92 287.45 C 189.64 289.23 190.03 293.46 191.53 296.30 C 196.92 300.02 204.57 299.77 208.92 305.03 C 213.22 311.25 210.08 320.69 202.90 323.14 C 197.67 323.93 192.29 323.98 187.08 323.04 C 185.91 322.70 184.73 322.38 183.54 322.10 C 183.63 319.94 183.73 317.78 183.86 315.62 C 184.89 316.09 185.91 316.58 186.93 317.09 C 191.02 319.21 196.22 320.90 200.61 318.67 C 203.82 317.14 204.28 312.93 203.21 309.91 C 202.03 307.60 199.44 306.76 197.25 305.74 C 196.20 305.43 195.15 305.11 194.11 304.78 C 192.67 304.29 191.24 303.76 189.79 303.30 C 186.79 301.45 184.39 298.72 183.72 295.18 C 183.73 294.36 183.74 292.74 183.75 291.92 Z" />
<path fill="#08070a" opacity="1.00" d=" M 215.71 287.09 C 213.53 286.57 215.29 284.13 215.25 282.64 C 226.31 282.80 237.37 282.69 248.44 282.70 C 248.45 284.19 248.45 285.69 248.46 287.18 C 243.90 287.18 239.34 287.09 234.78 287.26 C 234.85 299.35 234.77 311.43 234.82 323.52 C 232.67 323.50 230.53 323.50 228.39 323.52 C 228.39 311.43 228.33 299.34 228.42 287.26 C 224.19 287.05 219.94 287.30 215.71 287.09 Z" />
<path fill="#08070a" opacity="1.00" d=" M 345.86 282.67 C 349.73 282.39 353.62 282.53 357.50 282.63 L 357.56 283.22 C 359.94 283.32 362.30 283.65 364.60 284.35 C 364.46 286.43 364.34 288.51 364.24 290.60 C 357.54 286.97 348.05 283.60 341.70 289.64 C 341.23 290.51 340.75 291.38 340.26 292.24 C 339.74 293.76 339.28 295.29 338.79 296.82 C 338.45 301.00 338.71 305.19 339.73 309.27 C 341.15 312.32 342.75 315.62 345.94 317.17 C 350.57 319.90 356.11 319.33 361.11 318.12 C 362.23 317.72 363.37 317.37 364.52 317.02 C 364.48 318.36 364.44 319.70 364.39 321.04 C 360.95 322.52 357.38 323.86 353.57 323.75 C 353.54 324.10 353.47 324.81 353.44 325.17 C 356.12 325.50 357.73 327.60 358.59 329.98 C 357.82 333.33 354.82 335.20 351.48 334.83 L 351.62 335.53 C 350.04 335.41 348.47 335.30 346.90 335.21 C 345.70 334.91 344.49 334.64 343.29 334.38 C 343.30 333.37 343.31 331.34 343.32 330.33 C 346.19 331.81 349.42 332.26 352.56 331.43 C 352.52 330.52 352.50 329.61 352.48 328.71 C 351.16 328.11 349.86 327.52 348.53 327.00 C 348.56 325.93 348.60 324.86 348.65 323.80 C 346.33 323.62 344.06 323.11 341.86 322.38 C 337.89 320.31 334.84 316.99 332.95 312.96 C 331.22 307.74 331.24 302.21 331.62 296.79 C 332.80 293.50 333.85 289.96 336.46 287.49 C 338.97 284.87 342.53 283.82 345.86 282.67 Z" />
<path fill="#08070a" opacity="1.00" d=" M 382.09 284.07 C 388.08 281.93 394.88 281.74 400.65 284.66 C 412.71 292.42 413.04 313.04 400.90 320.88 C 395.64 324.33 389.06 324.03 383.10 323.19 C 379.23 321.49 375.96 318.74 373.56 315.27 C 372.28 312.31 371.44 309.19 370.75 306.04 C 370.64 302.62 371.13 299.23 371.71 295.88 C 372.22 294.64 372.69 293.39 373.20 292.16 C 375.17 288.51 378.36 285.81 382.09 284.07 M 386.87 286.87 C 382.19 287.91 379.33 292.53 378.65 297.01 C 377.67 303.39 378.70 310.41 382.76 315.60 C 385.54 318.89 390.07 319.84 394.20 319.39 C 397.06 318.06 399.76 316.01 400.87 312.94 C 403.31 306.94 402.67 299.93 399.97 294.13 C 397.72 289.31 392.31 285.59 386.87 286.87 Z" />
<path fill="#08070a" opacity="1.00" d=" M 418.21 323.50 C 418.28 309.89 418.13 296.28 418.29 282.68 C 425.78 282.77 433.28 282.71 440.77 282.68 C 440.89 284.44 441.02 286.19 441.12 287.95 C 435.63 287.47 430.09 286.34 424.59 287.31 C 424.68 291.62 424.66 295.94 424.62 300.25 C 429.92 300.19 435.22 300.26 440.52 300.25 C 440.50 301.30 440.47 303.39 440.46 304.44 C 435.18 304.44 429.91 304.42 424.64 304.46 C 424.70 309.20 424.55 313.94 424.65 318.67 C 430.34 320.12 436.41 318.60 442.22 318.23 C 442.20 319.98 442.19 321.73 442.19 323.49 C 434.20 323.50 426.20 323.51 418.21 323.50 Z" />
<path fill="#08070a" opacity="1.00" d=" M 500.32 323.53 C 500.32 309.92 500.24 296.30 500.35 282.69 C 507.83 282.73 515.30 282.75 522.78 282.69 C 522.96 284.45 523.12 286.21 523.24 287.97 C 517.73 287.47 512.16 286.34 506.64 287.31 C 506.76 291.47 506.75 295.62 506.63 299.77 C 511.92 300.69 517.30 300.00 522.63 300.31 C 522.59 301.35 522.51 303.42 522.46 304.45 C 517.20 304.42 511.94 304.40 506.68 304.49 C 506.71 309.26 506.75 314.04 506.64 318.82 C 512.50 319.79 518.41 318.83 524.25 318.21 C 524.23 319.97 524.23 321.73 524.22 323.49 C 516.25 323.52 508.28 323.46 500.32 323.53 Z" />
<path fill="#08070a" opacity="1.00" d=" M 543.58 282.72 C 554.83 282.72 566.09 282.71 577.34 282.72 C 577.35 284.20 577.36 285.69 577.37 287.17 C 572.80 287.17 568.24 287.13 563.68 287.20 C 563.70 299.31 563.69 311.42 563.68 323.54 C 561.51 323.51 559.35 323.49 557.20 323.48 C 557.26 311.38 557.19 299.29 557.23 287.19 C 552.65 287.15 548.07 287.16 543.50 287.18 C 543.51 285.69 543.54 284.21 543.58 282.72 Z" />
<path fill="#08070a" opacity="1.00" d=" M 583.35 323.54 C 583.28 309.92 583.25 296.30 583.37 282.68 C 590.96 282.78 598.55 282.66 606.14 282.73 C 606.14 284.46 606.16 286.19 606.17 287.93 C 600.68 287.50 595.14 286.35 589.65 287.30 C 589.76 291.46 589.75 295.62 589.66 299.79 C 594.93 300.64 600.28 300.06 605.59 300.24 C 605.55 301.64 605.51 303.05 605.49 304.45 C 600.22 304.43 594.96 304.39 589.69 304.48 C 589.71 309.39 589.76 314.30 589.68 319.22 C 595.56 319.38 601.43 319.02 607.26 318.19 C 607.23 319.95 607.22 321.72 607.21 323.49 C 599.26 323.54 591.30 323.44 583.35 323.54 Z" />
<path fill="#08070a" opacity="1.00" d=" M 702.70 282.71 C 704.94 282.72 707.20 282.71 709.46 282.69 C 711.80 288.08 713.83 293.61 715.80 299.15 C 716.28 300.38 716.74 301.61 717.24 302.85 C 719.56 309.83 722.74 316.49 724.99 323.49 C 722.59 323.51 720.20 323.49 717.82 323.43 C 717.32 321.87 716.78 320.33 716.28 318.78 C 715.76 317.56 715.27 316.34 714.77 315.12 C 714.26 313.64 713.73 312.17 713.23 310.70 C 708.03 310.70 702.83 310.69 697.64 310.71 C 697.15 312.18 696.64 313.65 696.18 315.13 C 695.70 316.34 695.24 317.56 694.78 318.78 C 694.27 320.34 693.74 321.90 693.26 323.47 C 691.42 323.48 689.60 323.49 687.78 323.50 C 689.31 316.70 692.59 310.47 694.76 303.87 C 695.13 302.89 695.49 301.90 695.83 300.90 C 696.33 299.68 696.64 298.40 697.21 297.21 C 698.85 292.30 700.75 287.50 702.70 282.71 M 699.31 306.36 C 703.36 306.34 707.41 306.36 711.47 306.37 C 710.33 303.53 709.24 300.69 708.23 297.81 C 707.74 296.55 707.25 295.28 706.80 294.02 C 706.22 292.62 705.63 291.23 705.03 289.86 C 703.36 295.44 701.25 300.87 699.31 306.36 Z" />
<path fill="#08070a" opacity="1.00" d=" M 731.32 283.27 C 737.20 282.12 743.25 282.47 749.20 282.69 C 750.85 283.16 752.43 283.76 754.07 284.30 C 754.35 284.33 754.90 284.40 755.18 284.43 C 756.30 285.43 757.44 286.44 758.52 287.50 C 760.27 291.44 760.02 295.89 759.01 299.98 C 754.99 307.30 745.80 308.21 738.33 307.78 C 738.22 313.00 738.27 318.22 738.27 323.44 C 735.98 323.48 733.68 323.49 731.40 323.51 C 731.33 310.10 731.48 296.68 731.32 283.27 M 738.33 286.34 C 738.22 292.09 738.25 297.84 738.32 303.59 C 742.19 303.48 746.64 304.53 749.98 302.03 C 753.77 298.96 754.18 292.59 751.08 288.92 C 747.76 285.50 742.61 286.42 738.33 286.34 Z" />
<path fill="#08070a" opacity="1.00" d=" M 767.50 323.51 C 767.55 309.91 767.45 296.32 767.55 282.72 C 769.63 282.72 771.72 282.70 773.82 282.65 C 774.85 294.80 773.95 307.07 774.29 319.26 C 779.70 319.31 785.11 319.00 790.47 318.15 C 790.45 319.93 790.44 321.72 790.45 323.51 C 782.80 323.50 775.15 323.50 767.50 323.51 Z" />
<path fill="#08070a" opacity="1.00" d=" M 797.59 323.51 C 797.61 309.91 797.53 296.31 797.62 282.71 C 805.21 282.73 812.81 282.74 820.41 282.70 C 820.45 284.44 820.49 286.19 820.54 287.94 C 815.13 287.46 809.70 286.46 804.27 287.13 C 804.32 291.50 804.31 295.87 804.31 300.24 C 809.62 300.27 814.94 300.10 820.26 300.37 C 820.23 301.69 820.21 303.02 820.20 304.35 C 814.90 304.52 809.60 304.41 804.31 304.44 C 804.32 309.38 804.27 314.32 804.36 319.26 C 810.09 319.34 815.81 319.07 821.48 318.18 C 821.48 319.95 821.48 321.72 821.50 323.50 C 813.52 323.49 805.55 323.52 797.59 323.51 Z" />
<path fill="#08070a" opacity="1.00" d=" M 829.48 323.51 C 829.46 309.91 829.44 296.31 829.48 282.71 C 831.83 282.71 834.19 282.69 836.56 282.63 C 843.51 292.79 850.27 303.08 857.20 313.27 C 857.34 303.07 857.12 292.87 857.31 282.67 C 859.04 282.69 860.78 282.71 862.53 282.72 C 862.56 296.32 862.57 309.92 862.54 323.52 C 860.43 323.50 858.32 323.50 856.23 323.53 C 855.20 321.97 854.18 320.41 853.18 318.85 C 847.06 310.01 841.35 300.86 834.88 292.28 C 834.62 302.70 834.85 313.12 834.74 323.54 C 832.98 323.52 831.23 323.51 829.48 323.51 Z" />
<path fill="#08070a" opacity="1.00" d=" M 883.67 283.38 C 886.09 282.55 888.65 282.65 891.20 282.72 C 891.54 283.79 891.91 284.85 892.31 285.90 C 892.95 287.54 893.50 289.23 894.20 290.86 C 896.80 297.90 899.63 304.85 902.25 311.89 C 902.71 313.31 903.22 314.72 903.70 316.15 C 904.67 318.57 905.55 321.04 906.53 323.47 C 904.20 323.51 901.88 323.51 899.57 323.54 C 897.78 319.48 896.52 315.20 894.66 311.18 C 889.89 310.12 884.64 310.87 879.70 310.74 C 877.40 314.73 876.41 319.35 874.53 323.56 C 872.72 323.52 870.91 323.50 869.11 323.49 C 869.89 320.91 870.89 318.42 871.72 315.86 C 872.20 314.62 872.68 313.38 873.18 312.14 C 873.66 310.66 874.19 309.20 874.70 307.73 C 876.74 302.44 878.74 297.14 880.77 291.85 C 881.13 290.84 881.50 289.84 881.88 288.85 C 882.51 287.04 883.12 285.22 883.67 283.38 M 886.29 290.46 C 885.14 293.93 883.98 297.39 882.71 300.81 C 882.15 302.66 881.56 304.49 881.06 306.35 C 885.00 306.37 888.93 306.37 892.88 306.33 C 892.61 305.53 892.09 303.94 891.83 303.15 C 890.02 298.92 889.14 294.16 886.29 290.46 Z" />
<path fill="#08070a" opacity="1.00" d=" M 921.01 284.06 C 922.63 283.62 924.27 283.19 925.89 282.68 C 932.22 281.95 938.48 283.14 944.75 283.84 C 944.79 286.08 944.72 288.33 944.65 290.58 C 939.28 287.66 933.17 285.66 927.01 286.53 C 922.61 287.01 919.21 290.74 918.11 294.86 C 916.21 302.34 917.67 311.09 923.59 316.44 C 928.16 319.05 933.56 319.98 938.70 318.65 C 938.76 313.88 938.74 309.11 938.70 304.35 C 940.91 304.31 943.12 304.32 945.35 304.33 C 945.33 309.75 945.28 315.17 945.39 320.59 C 944.54 321.07 943.71 321.54 942.88 322.01 C 941.56 322.37 940.23 322.72 938.95 323.12 C 932.03 323.82 924.20 324.89 918.12 320.70 C 914.98 318.78 913.18 315.45 911.66 312.23 C 909.64 304.88 909.10 296.24 913.72 289.73 C 915.41 287.04 918.23 285.42 921.01 284.06 Z" />
<path fill="#08070a" opacity="1.00" d=" M 954.55 282.69 C 962.05 282.72 969.56 282.77 977.07 282.65 C 977.18 284.41 977.42 286.17 977.52 287.94 C 972.15 287.35 966.76 286.92 961.37 286.73 C 961.21 291.23 961.25 295.75 961.31 300.26 C 966.44 300.22 971.57 300.24 976.71 300.22 C 976.66 301.63 976.63 303.04 976.61 304.45 C 971.50 304.42 966.39 304.46 961.28 304.42 C 961.26 309.36 961.24 314.31 961.31 319.26 C 967.04 319.33 972.76 319.01 978.44 318.19 C 978.41 319.96 978.39 321.74 978.39 323.53 C 970.43 323.51 962.48 323.49 954.53 323.51 C 954.52 309.90 954.47 296.30 954.55 282.69 Z" />
<path fill="#08070a" opacity="1.00" d=" M 988.16 296.09 C 988.40 291.57 988.81 287.07 989.53 282.61 C 991.62 282.58 993.68 282.93 995.71 283.47 C 995.68 283.83 995.62 284.57 995.59 284.94 C 996.83 287.24 997.78 289.67 998.76 292.09 C 1000.85 296.74 1002.83 301.43 1004.97 306.06 C 1005.80 308.12 1006.54 310.24 1007.06 312.42 C 1007.71 312.49 1008.37 312.56 1009.05 312.64 C 1011.15 306.53 1014.33 300.86 1016.71 294.86 C 1017.56 292.95 1018.40 291.04 1019.22 289.12 C 1020.09 286.98 1021.05 284.88 1021.96 282.76 C 1023.43 282.73 1024.92 282.70 1026.42 282.69 C 1026.72 283.74 1027.04 284.78 1027.39 285.82 C 1027.59 289.82 1027.39 293.88 1028.28 297.81 C 1028.79 306.40 1029.51 314.96 1030.42 323.51 C 1028.16 323.51 1025.91 323.50 1023.66 323.49 C 1022.91 314.25 1022.11 305.00 1021.22 295.77 C 1020.38 297.46 1019.63 299.18 1018.86 300.89 C 1017.85 303.21 1016.84 305.52 1015.85 307.84 C 1013.73 313.12 1011.04 318.14 1009.01 323.46 C 1007.65 323.47 1006.29 323.48 1004.95 323.50 C 1003.19 318.87 1001.00 314.43 999.10 309.86 C 998.40 308.11 997.72 306.36 997.09 304.60 L 996.75 304.41 C 995.62 301.53 994.38 298.69 993.72 295.67 C 993.50 296.26 993.07 297.45 992.85 298.04 C 992.12 306.54 991.09 315.01 990.43 323.51 C 988.74 323.51 987.05 323.50 985.39 323.50 C 986.39 314.37 986.97 305.19 988.16 296.09 Z" />
<path fill="#08070a" opacity="1.00" d=" M 1056.31 323.53 C 1056.34 309.92 1056.20 296.31 1056.38 282.70 C 1058.47 282.71 1060.57 282.70 1062.69 282.69 C 1062.88 294.87 1062.75 307.05 1062.76 319.23 C 1068.32 319.38 1073.85 318.88 1079.37 318.24 C 1079.35 319.98 1079.34 321.72 1079.35 323.47 C 1071.67 323.55 1063.99 323.46 1056.31 323.53 Z" />
<path fill="#08070a" opacity="1.00" d=" M 1078.38 282.72 C 1089.44 282.71 1100.51 282.76 1111.58 282.69 C 1111.60 284.18 1111.64 285.67 1111.68 287.17 C 1107.26 287.17 1102.84 287.15 1098.44 287.16 C 1098.48 299.27 1098.45 311.38 1098.45 323.49 C 1096.13 323.49 1093.83 323.50 1091.54 323.50 C 1091.55 311.40 1091.50 299.31 1091.57 287.22 C 1087.15 287.12 1082.73 287.17 1078.32 287.18 C 1078.32 285.69 1078.34 284.20 1078.38 282.72 Z" />
<path fill="#08070a" opacity="1.00" d=" M 1171.64 282.70 C 1173.89 282.71 1176.14 282.71 1178.41 282.70 C 1180.04 286.45 1181.47 290.28 1182.77 294.16 C 1183.22 295.39 1183.71 296.63 1184.22 297.87 C 1184.71 299.28 1185.23 300.69 1185.74 302.12 C 1188.52 309.21 1191.34 316.28 1193.88 323.46 C 1191.49 323.50 1189.10 323.50 1186.74 323.47 C 1186.10 321.67 1185.42 319.88 1184.76 318.10 C 1184.25 316.68 1183.70 315.28 1183.15 313.89 C 1182.80 312.84 1182.47 311.79 1182.14 310.75 C 1176.97 310.64 1171.79 310.74 1166.63 310.65 C 1165.44 313.79 1164.29 316.94 1163.17 320.11 C 1162.80 321.22 1162.46 322.33 1162.14 323.45 C 1160.16 323.48 1158.18 323.49 1156.23 323.50 C 1158.00 318.61 1160.00 313.79 1161.73 308.88 C 1162.21 307.64 1162.67 306.40 1163.19 305.17 C 1163.49 304.16 1163.83 303.16 1164.21 302.17 C 1166.51 295.61 1169.01 289.13 1171.64 282.70 M 1173.78 289.79 C 1173.69 290.46 1173.52 291.80 1173.44 292.47 L 1172.69 292.48 C 1172.61 293.12 1172.45 294.39 1172.37 295.02 C 1171.81 296.26 1171.31 297.52 1170.84 298.79 C 1170.03 301.33 1169.12 303.84 1168.27 306.36 C 1172.25 306.38 1176.22 306.33 1180.21 306.37 C 1178.23 300.79 1176.26 295.18 1173.78 289.79 Z" />
</g>
</svg>
