<?xml version="1.0" encoding="UTF-8" standalone="no"?>
<!DOCTYPE svg PUBLIC "-//W3C//DTD SVG 1.1//EN" "http://www.w3.org/Graphics/SVG/1.1/DTD/svg11.dtd">
<svg width="100%" height="100%" viewBox="0 0 1222 332" version="1.1" xmlns="http://www.w3.org/2000/svg" xmlns:xlink="http://www.w3.org/1999/xlink" xml:space="preserve" xmlns:serif="http://www.serif.com/" style="fill-rule:evenodd;clip-rule:evenodd;stroke-linejoin:round;stroke-miterlimit:2;">
    <g id="_-fd8b02ff" serif:id="#fd8b02ff">
        <path d="M186.14,6.26C187.86,5.03 189.59,3.33 191.89,3.57C208.94,3.57 226,3.56 243.05,3.57C247.93,3.12 249.93,8.49 252.8,11.43C257.3,17.46 262.3,23.13 266.47,29.4C242.18,29.09 218.01,37.18 198.72,51.91C172.2,71.65 156.35,104.79 157.44,137.8C157.37,140.95 157.43,144.29 159.52,146.86L157.89,145.7C159.73,160.04 163.84,174.22 171.16,186.77C182.1,206.35 199.52,222.15 219.97,231.32C223.92,232.95 228.03,234.21 231.85,236.15C232.79,236.73 233.91,236.61 234.95,236.45C235.63,236.38 236.99,236.23 237.67,236.16L237,237.25C246.19,239.54 255.64,240.28 265.09,239.72C261.65,233.66 258.33,227.16 258.34,220.02C258.09,207.36 258.16,194.68 258.28,182.01C258.19,175.03 260.67,168.25 264.4,162.42C268.6,156.15 275.41,152.1 282.54,150C293.05,146.64 304.2,147.59 315.06,147.45C324.61,147.55 334.43,146.78 343.64,149.86C352.9,152.36 361.41,158.72 365.13,167.74C369.87,178.18 368.38,189.91 368.65,201.03C368.41,212.15 369.84,224.03 364.4,234.23C359.73,244.95 348.18,250.48 337.19,252.24C331.02,252.84 324.85,253.62 318.64,253.55C318.54,254.19 318.34,255.48 318.24,256.12C229.86,256.11 141.48,256.06 53.1,256.14C40.62,232.53 27.66,209.17 15.15,185.57C9.93,176.62 5.75,167.07 0,158.42L0,155.03L0.01,156.65C2.99,154.13 5.82,151.36 9.18,149.32C12.12,153.44 13.99,158.19 16.48,162.58C32.5,192.29 48.46,222.01 64.46,251.73C67.74,251.71 71.02,251.71 74.29,251.64C70.49,243.25 65.72,235.36 61.51,227.18C51.86,209.54 42.5,191.75 32.79,174.15C28.5,165.32 23.39,156.93 18.82,148.24C18.12,146.5 16.65,144.53 17.48,142.6C20.76,139.14 24.72,136.36 28.81,133.92C49.71,173.23 71.11,212.27 92.01,251.58C96.14,251.68 100.27,251.71 104.4,251.67C102.87,247.71 100.93,243.93 98.81,240.27C78.87,203.64 59.29,166.82 39.38,130.18C38.87,128.88 37.96,127.57 38.27,126.12C40.62,123.24 43.87,121.29 46.61,118.83C49.37,116.69 51.86,113.59 55.63,113.46C57.15,118.41 59.84,122.86 62.39,127.33C75.57,152.22 88.94,177 102.38,201.76C111.06,218.45 120.53,234.72 128.89,251.57C131.96,251.62 135.03,251.63 138.11,251.58C134.85,244.05 130.3,237.19 126.76,229.81L125.51,233.81C125.25,230.93 125.87,227.85 124.23,225.28C116.54,210.87 108.62,196.58 101.06,182.09C99.81,179.73 98.38,177.47 96.93,175.23C86.93,155.21 75.7,135.82 65.39,115.95C53.54,94.54 42.46,72.72 30.33,51.48C44.57,62.99 58.87,74.47 73.18,85.91C101.62,109.06 130.63,131.49 158.97,154.74C158.29,151.26 157.75,147.74 156.81,144.31C149.46,139.41 142.9,133.46 135.91,128.09C119.07,114.68 102.4,101.04 85.42,87.82C118.74,60.32 152.74,33.65 186.14,6.26M284.53,175.54C282.15,180.66 282.32,186.46 282.36,191.99C282.57,200.83 281.96,209.71 282.67,218.52C283.17,224.15 286.58,229.19 291.81,231.44C301.38,233.62 311.25,232.41 320.97,232.73C326.14,233.01 331.26,232.26 336.29,231.15C336.43,230.58 336.71,229.45 336.84,228.88C337.48,228.84 338.74,228.74 339.37,228.7C343.53,224.2 344.36,217.86 344.34,211.98C344.28,204.32 344.38,196.66 344.31,189C344.08,183.89 343.6,178.64 341.27,174C336.79,168.78 329.57,167.62 323.05,167.56C314.07,167.65 305.08,167.39 296.1,167.85C291.62,169.14 286.64,171 284.53,175.54M276.72,247.72C277.97,249.02 279.16,250.41 280.61,251.5C283.48,251.41 286.34,251.41 289.21,251.32C287.28,246.07 281,247.68 276.72,247.72Z" style="fill:rgb(253,139,2);fill-rule:nonzero;"/>
        <path d="M380.56,148.56C388.02,148.55 395.49,148.57 402.95,148.51C407.19,148.47 411.51,149.07 415.43,150.77C420.08,153.98 422.76,159.13 425.08,164.13C430.3,174.23 435.4,184.41 440.44,194.61C446.35,205.27 451.28,216.44 457.1,227.14C457.75,227.43 459.04,228.01 459.68,228.31C459.63,227.17 459.52,224.91 459.46,223.78C458.36,218.86 458.91,213.79 458.21,208.83C457.28,202.94 457.59,196.96 457.54,191.02C457.57,176.89 457.48,162.76 457.59,148.63C465.59,148.53 473.6,148.57 481.6,148.54C481.91,182.93 481.7,217.33 481.71,251.72C472.13,251.72 462.53,251.87 452.95,251.5C446.37,251.2 441.81,245.65 439.09,240.19C431.39,224.28 422.96,208.73 415.32,192.79C411.66,186.28 408.61,179.43 404.86,172.98C404.24,172.74 403,172.26 402.38,172.02C403.35,182.32 404.68,192.61 404.58,202.98C404.64,219.2 404.64,235.43 404.59,251.66C396.56,251.71 388.52,251.79 380.49,251.6C380.54,217.26 380.41,182.91 380.56,148.56Z" style="fill:rgb(253,139,2);fill-rule:nonzero;"/>
        <path d="M488.98,148.65C520.9,148.44 552.82,148.66 584.73,148.54C584.69,153.49 583.99,158.4 583.26,163.29C582.86,165.52 581.05,167.03 579.54,168.55C569.5,168.51 559.46,168.69 549.42,168.54C549.35,196.21 549.4,223.88 549.4,251.55C541.14,251.82 532.86,251.75 524.6,251.61C524.41,223.93 524.67,196.24 524.47,168.56C514.28,168.63 504.1,168.66 493.92,168.49C488.96,163.78 489.94,156.39 488.57,150.26L487.54,150.81C488.02,150.09 488.5,149.37 488.98,148.65Z" style="fill:rgb(253,139,2);fill-rule:nonzero;"/>
        <path d="M592.13,148.52C622,148.6 651.86,148.58 681.72,148.54C681.9,154.48 680.62,160.32 679.23,166.06C678.22,166.89 677.23,167.72 676.25,168.56C656.36,168.62 636.48,168.62 616.6,168.56C615.62,175.51 615.61,182.54 616.58,189.49C636.3,189.49 656.01,189.48 675.73,189.49C675.62,193.4 674.76,197.22 674.31,201.09C674,202.46 673.72,203.84 673.48,205.22C672.42,206.32 671.79,208.53 669.89,207.94C669.72,208.07 669.38,208.34 669.21,208.48C651.64,208.5 634.08,208.54 616.51,208.48C616.85,215.32 615.31,222.49 617.62,229.08C618.63,229.87 619.65,230.68 620.67,231.49C639.78,231.87 658.91,231.59 678.04,231.64C679.45,232.72 681.1,233.64 682.07,235.2C683.93,240.49 683.75,246.17 683.88,251.7C663.25,251.71 642.62,251.71 621.99,251.71C618.27,251.79 614.56,251.63 610.87,251.28C604.07,250.21 597.88,246.21 594.57,240.12C591.97,234.45 591.76,228.13 591.69,222C591.7,201.01 591.69,180.02 591.73,159.03C591.67,155.52 591.6,152 592.13,148.52Z" style="fill:rgb(253,139,2);fill-rule:nonzero;"/>
        <path d="M697.64,148.65C718.45,148.49 739.27,148.58 760.08,148.6C770.55,148.79 782.15,152.14 788.26,161.25C793.52,169.05 792.82,178.77 792.63,187.72C792.54,190.55 791.91,193.31 791.34,196.07C789.32,200.28 786.51,204.02 783.01,207.11C781.71,207.78 780.42,208.48 779.18,209.23C774.19,211.09 769.02,212.55 763.65,212.65C764.67,213.93 765.88,215.01 767.29,215.9C773.41,222.41 778.78,229.58 784.79,236.2C788.66,241.56 793.68,245.99 797.29,251.55C789.54,251.83 781.78,251.61 774.03,251.74C771.05,251.6 767.61,252.23 765.2,250.05C761.88,247.27 759.5,243.59 756.57,240.44C750.5,232.79 744.16,225.35 737.97,217.79C736.53,216.21 735.71,214.15 735.69,212.02C735.41,206.81 735.54,201.6 735.58,196.39C743.32,196.32 751.07,196.48 758.81,196.28C762.2,196.24 764.98,194.2 767.48,192.13C768.28,186.25 768.94,180.13 767.63,174.28C766.37,170.61 762.49,169.32 759.03,168.69C746.83,168.45 734.64,168.69 722.45,168.61C722.12,196.05 722.51,223.5 722.26,250.95C721.66,251.85 721.09,252.78 720.53,253.7L720.89,252.22C713.11,252 705.25,252.85 697.53,251.73C697.7,217.37 697.49,183.01 697.64,148.65Z" style="fill:rgb(253,139,2);fill-rule:nonzero;"/>
        <path d="M805.55,148.58C826.69,148.59 847.85,148.48 868.99,148.63C878.62,149.64 888.83,153.08 894.8,161.16C897.57,166.31 899.95,171.98 899.78,177.96C899.71,183.92 900.19,189.95 899.31,195.87C897.58,202.46 894.26,209.24 888.2,212.84C885.39,214.71 882.27,216 879.16,217.25C862.88,220.8 846.16,218.68 829.67,219.49C829.74,230.22 829.7,240.95 829.71,251.68C821.62,251.67 813.53,251.78 805.44,251.66C805.47,217.3 805.28,182.94 805.55,148.58M829.72,168.66C829.63,176.77 829.81,184.87 829.65,192.98C829.55,195.15 829.85,197.3 830.24,199.43C841.48,199.13 852.73,199.48 863.97,199.27C868.92,199.15 874.44,196.3 875.21,190.98C875.47,185.48 876.01,179.76 874.31,174.43C873.3,171.15 869.87,170 867.1,168.68C854.64,168.56 842.18,168.57 829.72,168.66Z" style="fill:rgb(253,139,2);fill-rule:nonzero;"/>
        <path d="M911.72,148.57C919.91,148.58 928.1,148.44 936.29,148.64C936.46,175.14 936.04,201.66 936.52,228.15C937.62,229.26 938.73,230.37 939.85,231.48C953.91,231.95 968,231.5 982.07,231.69C984.46,231.8 986.78,232.39 989.14,232.8C990.18,236 991.05,239.25 991.68,242.56C992.06,242.64 992.82,242.81 993.2,242.9C997.8,231.25 1004.14,220.37 1008.74,208.72C1014.71,197.4 1019.68,185.59 1025.2,174.06C1028.58,166.81 1032.01,159.58 1035.51,152.39C1036.35,150.49 1038.29,149.55 1039.92,148.42C1045.31,148.39 1050.72,148.25 1056.12,148.5C1057.54,148.85 1058.93,149.2 1060.38,149.56C1065.61,157.5 1068.94,166.5 1072.81,175.14C1077.98,184.53 1081.81,194.61 1086.71,204.15C1092,215.82 1097.56,227.35 1102.91,238.99C1104.88,243.19 1106.88,247.37 1108.86,251.57C1100.41,251.74 1091.94,251.89 1083.5,251.48C1079.31,248.55 1078.03,243.45 1076.03,239.04C1074.37,235.27 1072.52,231.56 1071.24,227.63C1056.52,227.43 1041.8,227.65 1027.09,227.49C1023.93,233.84 1021.19,240.38 1018.21,246.81C1017.36,248.68 1015.85,250.12 1014.41,251.54C1002.94,252 991.44,251.33 979.98,251.98C962.97,251.16 945.9,252.34 928.89,251.29C924.98,249.72 920.99,248.02 917.99,244.97C915.65,242.76 914.4,239.74 913.05,236.89C911.96,232.33 911.63,227.65 911.71,222.97C911.75,198.17 911.68,173.37 911.72,148.57M1048.96,174.04C1048.67,174.72 1048.08,176.08 1047.79,176.76C1044.68,187.83 1038.77,197.78 1035.01,208.6C1044.32,208.65 1053.63,208.81 1062.94,208.5C1058.75,197.91 1053.45,187.75 1050.11,176.85C1049.71,175.91 1049.35,174.98 1048.96,174.04Z" style="fill:rgb(253,139,2);fill-rule:nonzero;"/>
        <path d="M1114.45,148.59C1122.63,148.55 1130.82,148.5 1139.01,148.54C1143.3,148.47 1147.39,150.01 1151.19,151.88C1157.05,158.21 1159.91,166.5 1163.98,173.97C1171.55,189.01 1179.15,204.04 1186.78,219.05C1189.22,222.03 1189.32,227.41 1193.68,228.18C1193.78,222.67 1192.43,217.29 1192.41,211.8C1190.92,202.61 1191.74,193.23 1191.53,183.96C1191.55,172.17 1191.46,160.38 1191.57,148.59C1199.59,148.6 1207.61,148.51 1215.63,148.57C1215.83,182.94 1215.49,217.32 1215.79,251.69C1210.83,251.36 1205.89,252.47 1200.96,251.87C1195.59,251.38 1190.15,252.12 1184.82,251.3C1179.47,250.01 1175.69,245.45 1173.3,240.76C1165.43,224.71 1157.04,208.92 1149.15,192.89C1145.22,186.02 1142.19,178.68 1138.16,171.88C1137.73,171.81 1136.86,171.66 1136.43,171.59C1136.32,176.35 1136.51,181.13 1137.46,185.81C1139.19,200.81 1138.49,215.91 1138.62,230.97C1138.54,238.08 1138.78,245.2 1138.45,252.3C1130.5,252.24 1122.55,252.23 1114.6,252.29C1114.09,217.74 1114.36,183.15 1114.45,148.59Z" style="fill:rgb(253,139,2);fill-rule:nonzero;"/>
    </g>
    <g id="_-08070aff" serif:id="#08070aff">
        <path d="M252.8,11.43C257.27,11.43 261.75,11.42 266.23,11.49C273.14,19.99 279.74,28.74 286.69,37.21C275.1,36.98 263.45,38.47 252.43,42.14C229.83,49.02 210.01,64.17 196.97,83.81C183.01,104.81 177.1,130.98 180.58,155.95C172.89,149.89 165.44,143.47 157.44,137.8C156.35,104.79 172.2,71.65 198.72,51.91C218.01,37.18 242.18,29.09 266.47,29.4C262.3,23.13 257.3,17.46 252.8,11.43Z" style="fill:white;fill-rule:nonzero;"/>
        <path d="M157.89,145.7L159.52,146.86C166.31,151.87 172.69,157.41 179.4,162.54C181.77,173.82 185.47,184.91 191.2,194.94C201.27,212.61 216.42,227.82 234.95,236.45C233.91,236.61 232.79,236.73 231.85,236.15C228.03,234.21 223.92,232.95 219.97,231.32C199.52,222.15 182.1,206.35 171.16,186.77C163.84,174.22 159.73,160.04 157.89,145.7Z" style="fill:white;fill-rule:nonzero;"/>
        <path d="M276.72,247.72C281,247.68 287.28,246.07 289.21,251.32C286.34,251.41 283.48,251.41 280.61,251.5C279.16,250.41 277.97,249.02 276.72,247.72Z" style="fill:white;fill-rule:nonzero;"/>
        <path d="M53.1,256.14C141.48,256.06 229.86,256.11 318.24,256.12C475.51,256.1 632.78,256.12 790.05,256.11C934.1,256.17 1078.16,256 1222.21,256.19C1222.16,258.92 1222.13,261.65 1222.03,264.38C943.69,264.37 665.35,264.37 387.01,264.38C358.99,264.52 330.95,264.02 302.94,264.72C221.23,264.68 139.52,264.72 57.81,264.7C56.2,261.87 54.6,259.03 53.1,256.14Z" style="fill:white;fill-rule:nonzero;"/>
        <path d="M383.48,272.44C388.2,271.03 391.83,275.16 396.4,274.56C396.37,274 396.29,272.88 396.26,272.32C397.7,272.32 399.16,272.32 400.61,272.36C399.6,274.99 398.39,278.52 395.12,278.87C392.04,279.49 389.55,277.34 386.89,276.26C384.86,275.65 384.21,278.05 383.01,279.11C382.24,279.17 380.7,279.28 379.92,279.33C380.49,276.75 381.66,274.36 383.48,272.44Z" style="fill:white;fill-rule:nonzero;"/>
        <path d="M69.99,282.79C74.02,282.35 78.07,282.43 82.1,282.76C84.37,283.26 86.63,283.78 88.91,284.27L89.63,284.45C89.36,286.52 89.08,288.6 88.74,290.68C83.51,287.44 77.12,285.35 70.97,286.82C68.05,287.73 66.23,290.32 64.69,292.8C62.55,300.31 62.82,309.44 68.52,315.37C74.14,320.49 82.84,319.7 89.22,316.53C89.33,317.86 89.41,319.2 89.52,320.54C83.95,323.95 77.28,324.09 70.97,323.48C64.88,322.54 59.75,317.97 57.9,312.11C54.38,302.53 55.93,288.97 66.19,284.22C67.44,283.7 68.74,283.32 69.99,282.79Z" style="fill:white;fill-rule:nonzero;"/>
        <path d="M103.83,284.62C109.77,282.3 116.74,281.31 122.64,284.26C127.3,286.22 130.17,290.67 132.06,295.15C132.97,300.33 132.98,305.68 132.09,310.86C129.12,318.54 121.45,324.4 113.01,323.71C105.57,324.6 98.76,319.69 95.59,313.2C93.6,307.31 93.4,301.06 94.9,295.04C96.7,290.7 99.85,287.09 103.83,284.62M103,292.84C100.66,298.55 101.06,305.19 103.14,310.93C103.65,312.02 104.14,313.13 104.65,314.24C107.85,318.37 113.65,320.94 118.68,318.66C122.66,317.14 124.15,312.84 125.34,309.13C125.39,306.38 125.38,303.62 125.32,300.88C124.3,295.33 121.6,289.37 115.92,287.32C111,285.15 104.98,287.95 103,292.84Z" style="fill:white;fill-rule:nonzero;"/>
        <path d="M254.45,282.76C260.89,282.69 267.42,281.88 273.79,283.17C275.29,283.69 276.78,284.25 278.28,284.79L278.52,285.14C284.56,289.95 283.38,300.09 276.84,303.94C275.03,304.58 273.22,305.26 271.4,305.88C271.49,306.17 271.67,306.75 271.76,307.03C276.66,312.46 281.68,317.78 286.34,323.41C283.56,323.51 280.79,323.53 278.02,323.46C273.54,317.64 268.77,312.04 264.27,306.24C264.28,305.38 264.29,303.66 264.3,302.81C267.03,302.56 270.26,303.32 272.53,301.36C276.52,298.12 276.83,290.75 272.4,287.75C269.09,285.68 264.97,286.46 261.27,286.33C261.04,293.21 261.45,300.1 260.84,306.96C260.43,312.48 261.83,318 260.84,323.5C258.68,323.5 256.53,323.51 254.37,323.52C254.38,309.93 254.23,296.34 254.45,282.76Z" style="fill:white;fill-rule:nonzero;"/>
        <path d="M291.58,282.72L298.43,282.72C298.73,293.15 297.93,303.62 298.89,314.02C302,321.41 315.07,321.55 316.66,313.01C317.78,302.97 316.97,292.78 316.28,282.72C318.4,282.72 320.52,282.7 322.65,282.65C323.58,286.39 323.16,290.26 323.23,294.07C323.16,299.36 323.41,304.65 323.03,309.93C322.71,314.08 321.39,318.48 317.77,320.93C313.29,324.36 307.34,323.85 302.05,323.51C297.21,323.04 293.26,319.45 291.85,314.88C291.19,304.18 291.66,293.43 291.58,282.72Z" style="fill:white;fill-rule:nonzero;"/>
        <path d="M448.95,288.01C454.45,280.92 464.53,281.85 472.29,283.79C472.12,285.86 471.9,287.92 471.71,290C467.05,286.02 458.81,284.18 454.57,289.67C454.58,291.32 454.57,292.98 454.56,294.64C458.83,300.26 467.12,299.22 472.05,303.97C473.88,305.52 474.6,307.89 474.93,310.18C475.01,310.6 475.18,311.45 475.27,311.87C474.7,313.97 474.59,316.28 473.32,318.13C471.88,320.53 469.28,321.81 466.94,323.15C461.7,323.92 456.3,323.99 451.09,323C449.91,322.67 448.72,322.37 447.54,322.1C447.68,319.81 447.22,317.31 448.49,315.26C452.93,318.67 459.27,321.22 464.69,318.68C468.32,317.08 468.15,312.24 467.02,309.09C463.19,305.55 457.67,305.03 453.1,302.89C450.7,301.07 448.15,298.89 448.09,295.61L447.53,295.46C447.66,294.02 447.78,292.59 448.04,291.17C448.35,290.12 448.66,289.07 448.95,288.01Z" style="fill:white;fill-rule:nonzero;"/>
        <path d="M615.37,282.71C621.28,282.59 627.2,282.28 633.11,282.71C637.4,283.6 641.27,285.98 643.13,290.1C643.31,292.42 643.32,294.76 643.35,297.1C643.2,297.22 642.89,297.46 642.74,297.59C641.38,302.23 636.76,304.62 632.43,305.86C632.46,306.16 632.51,306.78 632.53,307.09C635.56,310.5 638.78,313.75 641.76,317.22C643.52,319.3 645.35,321.33 647.08,323.45C644.35,323.51 641.61,323.51 638.88,323.5C634.5,318.02 630.1,312.57 625.65,307.16C625.33,306.41 625.01,305.66 624.7,304.92C625.01,304.2 625.32,303.5 625.63,302.79C627.8,302.76 629.97,302.61 632.14,302.42C633.25,301.4 634.35,300.34 635.41,299.25C636.43,295.74 636.97,291.5 634.3,288.57C630.83,285.51 625.87,286.39 621.64,286.45C621.69,298.8 621.66,311.15 621.66,323.5C619.53,323.51 617.4,323.52 615.28,323.55C615.28,309.94 615.11,296.32 615.37,282.71Z" style="fill:white;fill-rule:nonzero;"/>
        <path d="M653.54,282.77C660.93,282.8 668.72,281.32 675.77,284.2C681.27,286.43 683.05,293.62 680.67,298.71C679.53,301.18 677.23,302.78 675.12,304.37C673.48,304.9 671.83,305.45 670.19,305.96C670.63,306.47 671.52,307.5 671.96,308.01C672.55,308.74 673.15,309.47 673.74,310.21C677.12,314.25 680.93,317.9 684.31,321.95C684.48,322.34 684.82,323.13 685,323.52C682.33,323.52 679.67,323.52 677.02,323.43C672.79,317.71 668.12,312.31 663.62,306.81C663.53,305.47 663.47,304.13 663.43,302.79C666.54,302.71 670.3,303.21 672.57,300.54C675.39,297.75 674.57,293.55 674.2,290.01C670.76,285.88 665.17,286.11 660.3,286.33C660.2,298.72 660.32,311.1 660.25,323.48C657.99,323.5 655.73,323.52 653.48,323.55C653.54,309.96 653.41,296.36 653.54,282.77Z" style="fill:white;fill-rule:nonzero;"/>
        <path d="M1117.87,282.89C1125.03,282.39 1132.24,282.39 1139.42,282.72L1139.46,283.34C1140.63,283.47 1141.8,283.66 1142.98,283.9C1146.49,285.65 1149.55,288.26 1151.21,291.9C1151.53,292.92 1151.89,293.93 1152.28,294.94C1152.86,299.63 1152.81,304.38 1152.35,309.09C1151.79,310.31 1151.3,311.56 1150.81,312.81C1148.24,317.98 1143.21,321.24 1137.94,323.18C1131.24,324.08 1124.45,323.72 1117.72,323.53C1117.84,309.98 1117.53,296.43 1117.87,282.89M1124.46,286.3C1124.44,297.23 1124.35,308.17 1124.5,319.1C1131.3,320.08 1140.63,320.54 1143.85,312.95C1145.96,307.06 1145.71,300.67 1144.33,294.66C1143.06,292.39 1141.68,290.05 1139.37,288.71C1134.96,285.82 1129.48,286.15 1124.46,286.3Z" style="fill:white;fill-rule:nonzero;"/>
        <path d="M141.62,282.71C144.05,282.79 146.55,282.44 148.94,282.91C155.85,292.71 162.13,302.97 169.2,312.66C169.56,302.68 169.22,292.69 169.39,282.7C171.14,282.7 172.89,282.7 174.64,282.68C174.72,296.31 174.69,309.94 174.68,323.56C172.5,323.51 170.34,323.48 168.17,323.38C161.86,313.11 154.69,303.38 148.12,293.28C147.78,293.31 147.11,293.37 146.77,293.4C146.83,297.93 146.72,302.47 146.94,307C146.67,312.51 146.88,318.03 146.77,323.54C145.04,323.52 143.31,323.5 141.59,323.5C141.62,309.9 141.56,296.31 141.62,282.71Z" style="fill:white;fill-rule:nonzero;"/>
        <path d="M183.75,291.92C184.59,287.49 187.97,284.39 192.08,282.9C196.02,282.37 200.03,282.36 203.98,282.83C205.24,283.19 206.51,283.5 207.79,283.77C207.73,285.81 207.66,287.85 207.59,289.9C203.52,286.81 197.7,284.81 192.92,287.45C189.64,289.23 190.03,293.46 191.53,296.3C196.92,300.02 204.57,299.77 208.92,305.03C213.22,311.25 210.08,320.69 202.9,323.14C197.67,323.93 192.29,323.98 187.08,323.04C185.91,322.7 184.73,322.38 183.54,322.1C183.63,319.94 183.73,317.78 183.86,315.62C184.89,316.09 185.91,316.58 186.93,317.09C191.02,319.21 196.22,320.9 200.61,318.67C203.82,317.14 204.28,312.93 203.21,309.91C202.03,307.6 199.44,306.76 197.25,305.74C196.2,305.43 195.15,305.11 194.11,304.78C192.67,304.29 191.24,303.76 189.79,303.3C186.79,301.45 184.39,298.72 183.72,295.18C183.73,294.36 183.74,292.74 183.75,291.92Z" style="fill:white;fill-rule:nonzero;"/>
        <path d="M215.71,287.09C213.53,286.57 215.29,284.13 215.25,282.64C226.31,282.8 237.37,282.69 248.44,282.7C248.45,284.19 248.45,285.69 248.46,287.18C243.9,287.18 239.34,287.09 234.78,287.26C234.85,299.35 234.77,311.43 234.82,323.52C232.67,323.5 230.53,323.5 228.39,323.52C228.39,311.43 228.33,299.34 228.42,287.26C224.19,287.05 219.94,287.3 215.71,287.09Z" style="fill:white;fill-rule:nonzero;"/>
        <path d="M345.86,282.67C349.73,282.39 353.62,282.53 357.5,282.63L357.56,283.22C359.94,283.32 362.3,283.65 364.6,284.35C364.46,286.43 364.34,288.51 364.24,290.6C357.54,286.97 348.05,283.6 341.7,289.64C341.23,290.51 340.75,291.38 340.26,292.24C339.74,293.76 339.28,295.29 338.79,296.82C338.45,301 338.71,305.19 339.73,309.27C341.15,312.32 342.75,315.62 345.94,317.17C350.57,319.9 356.11,319.33 361.11,318.12C362.23,317.72 363.37,317.37 364.52,317.02C364.48,318.36 364.44,319.7 364.39,321.04C360.95,322.52 357.38,323.86 353.57,323.75C353.54,324.1 353.47,324.81 353.44,325.17C356.12,325.5 357.73,327.6 358.59,329.98C357.82,333.33 354.82,335.2 351.48,334.83L351.62,335.53C350.04,335.41 348.47,335.3 346.9,335.21C345.7,334.91 344.49,334.64 343.29,334.38C343.3,333.37 343.31,331.34 343.32,330.33C346.19,331.81 349.42,332.26 352.56,331.43C352.52,330.52 352.5,329.61 352.48,328.71C351.16,328.11 349.86,327.52 348.53,327C348.56,325.93 348.6,324.86 348.65,323.8C346.33,323.62 344.06,323.11 341.86,322.38C337.89,320.31 334.84,316.99 332.95,312.96C331.22,307.74 331.24,302.21 331.62,296.79C332.8,293.5 333.85,289.96 336.46,287.49C338.97,284.87 342.53,283.82 345.86,282.67Z" style="fill:white;fill-rule:nonzero;"/>
        <path d="M382.09,284.07C388.08,281.93 394.88,281.74 400.65,284.66C412.71,292.42 413.04,313.04 400.9,320.88C395.64,324.33 389.06,324.03 383.1,323.19C379.23,321.49 375.96,318.74 373.56,315.27C372.28,312.31 371.44,309.19 370.75,306.04C370.64,302.62 371.13,299.23 371.71,295.88C372.22,294.64 372.69,293.39 373.2,292.16C375.17,288.51 378.36,285.81 382.09,284.07M386.87,286.87C382.19,287.91 379.33,292.53 378.65,297.01C377.67,303.39 378.7,310.41 382.76,315.6C385.54,318.89 390.07,319.84 394.2,319.39C397.06,318.06 399.76,316.01 400.87,312.94C403.31,306.94 402.67,299.93 399.97,294.13C397.72,289.31 392.31,285.59 386.87,286.87Z" style="fill:white;fill-rule:nonzero;"/>
        <path d="M418.21,323.5C418.28,309.89 418.13,296.28 418.29,282.68C425.78,282.77 433.28,282.71 440.77,282.68C440.89,284.44 441.02,286.19 441.12,287.95C435.63,287.47 430.09,286.34 424.59,287.31C424.68,291.62 424.66,295.94 424.62,300.25C429.92,300.19 435.22,300.26 440.52,300.25C440.5,301.3 440.47,303.39 440.46,304.44C435.18,304.44 429.91,304.42 424.64,304.46C424.7,309.2 424.55,313.94 424.65,318.67C430.34,320.12 436.41,318.6 442.22,318.23C442.2,319.98 442.19,321.73 442.19,323.49C434.2,323.5 426.2,323.51 418.21,323.5Z" style="fill:white;fill-rule:nonzero;"/>
        <path d="M500.32,323.53C500.32,309.92 500.24,296.3 500.35,282.69C507.83,282.73 515.3,282.75 522.78,282.69C522.96,284.45 523.12,286.21 523.24,287.97C517.73,287.47 512.16,286.34 506.64,287.31C506.76,291.47 506.75,295.62 506.63,299.77C511.92,300.69 517.3,300 522.63,300.31C522.59,301.35 522.51,303.42 522.46,304.45C517.2,304.42 511.94,304.4 506.68,304.49C506.71,309.26 506.75,314.04 506.64,318.82C512.5,319.79 518.41,318.83 524.25,318.21C524.23,319.97 524.23,321.73 524.22,323.49C516.25,323.52 508.28,323.46 500.32,323.53Z" style="fill:white;fill-rule:nonzero;"/>
        <path d="M543.58,282.72C554.83,282.72 566.09,282.71 577.34,282.72C577.35,284.2 577.36,285.69 577.37,287.17C572.8,287.17 568.24,287.13 563.68,287.2C563.7,299.31 563.69,311.42 563.68,323.54C561.51,323.51 559.35,323.49 557.2,323.48C557.26,311.38 557.19,299.29 557.23,287.19C552.65,287.15 548.07,287.16 543.5,287.18C543.51,285.69 543.54,284.21 543.58,282.72Z" style="fill:white;fill-rule:nonzero;"/>
        <path d="M583.35,323.54C583.28,309.92 583.25,296.3 583.37,282.68C590.96,282.78 598.55,282.66 606.14,282.73C606.14,284.46 606.16,286.19 606.17,287.93C600.68,287.5 595.14,286.35 589.65,287.3C589.76,291.46 589.75,295.62 589.66,299.79C594.93,300.64 600.28,300.06 605.59,300.24C605.55,301.64 605.51,303.05 605.49,304.45C600.22,304.43 594.96,304.39 589.69,304.48C589.71,309.39 589.76,314.3 589.68,319.22C595.56,319.38 601.43,319.02 607.26,318.19C607.23,319.95 607.22,321.72 607.21,323.49C599.26,323.54 591.3,323.44 583.35,323.54Z" style="fill:white;fill-rule:nonzero;"/>
        <path d="M702.7,282.71C704.94,282.72 707.2,282.71 709.46,282.69C711.8,288.08 713.83,293.61 715.8,299.15C716.28,300.38 716.74,301.61 717.24,302.85C719.56,309.83 722.74,316.49 724.99,323.49C722.59,323.51 720.2,323.49 717.82,323.43C717.32,321.87 716.78,320.33 716.28,318.78C715.76,317.56 715.27,316.34 714.77,315.12C714.26,313.64 713.73,312.17 713.23,310.7C708.03,310.7 702.83,310.69 697.64,310.71C697.15,312.18 696.64,313.65 696.18,315.13C695.7,316.34 695.24,317.56 694.78,318.78C694.27,320.34 693.74,321.9 693.26,323.47C691.42,323.48 689.6,323.49 687.78,323.5C689.31,316.7 692.59,310.47 694.76,303.87C695.13,302.89 695.49,301.9 695.83,300.9C696.33,299.68 696.64,298.4 697.21,297.21C698.85,292.3 700.75,287.5 702.7,282.71M699.31,306.36C703.36,306.34 707.41,306.36 711.47,306.37C710.33,303.53 709.24,300.69 708.23,297.81C707.74,296.55 707.25,295.28 706.8,294.02C706.22,292.62 705.63,291.23 705.03,289.86C703.36,295.44 701.25,300.87 699.31,306.36Z" style="fill:white;fill-rule:nonzero;"/>
        <path d="M731.32,283.27C737.2,282.12 743.25,282.47 749.2,282.69C750.85,283.16 752.43,283.76 754.07,284.3C754.35,284.33 754.9,284.4 755.18,284.43C756.3,285.43 757.44,286.44 758.52,287.5C760.27,291.44 760.02,295.89 759.01,299.98C754.99,307.3 745.8,308.21 738.33,307.78C738.22,313 738.27,318.22 738.27,323.44C735.98,323.48 733.68,323.49 731.4,323.51C731.33,310.1 731.48,296.68 731.32,283.27M738.33,286.34C738.22,292.09 738.25,297.84 738.32,303.59C742.19,303.48 746.64,304.53 749.98,302.03C753.77,298.96 754.18,292.59 751.08,288.92C747.76,285.5 742.61,286.42 738.33,286.34Z" style="fill:white;fill-rule:nonzero;"/>
        <path d="M767.5,323.51C767.55,309.91 767.45,296.32 767.55,282.72C769.63,282.72 771.72,282.7 773.82,282.65C774.85,294.8 773.95,307.07 774.29,319.26C779.7,319.31 785.11,319 790.47,318.15C790.45,319.93 790.44,321.72 790.45,323.51C782.8,323.5 775.15,323.5 767.5,323.51Z" style="fill:white;fill-rule:nonzero;"/>
        <path d="M797.59,323.51C797.61,309.91 797.53,296.31 797.62,282.71C805.21,282.73 812.81,282.74 820.41,282.7C820.45,284.44 820.49,286.19 820.54,287.94C815.13,287.46 809.7,286.46 804.27,287.13C804.32,291.5 804.31,295.87 804.31,300.24C809.62,300.27 814.94,300.1 820.26,300.37C820.23,301.69 820.21,303.02 820.2,304.35C814.9,304.52 809.6,304.41 804.31,304.44C804.32,309.38 804.27,314.32 804.36,319.26C810.09,319.34 815.81,319.07 821.48,318.18C821.48,319.95 821.48,321.72 821.5,323.5C813.52,323.49 805.55,323.52 797.59,323.51Z" style="fill:white;fill-rule:nonzero;"/>
        <path d="M829.48,323.51C829.46,309.91 829.44,296.31 829.48,282.71C831.83,282.71 834.19,282.69 836.56,282.63C843.51,292.79 850.27,303.08 857.2,313.27C857.34,303.07 857.12,292.87 857.31,282.67C859.04,282.69 860.78,282.71 862.53,282.72C862.56,296.32 862.57,309.92 862.54,323.52C860.43,323.5 858.32,323.5 856.23,323.53C855.2,321.97 854.18,320.41 853.18,318.85C847.06,310.01 841.35,300.86 834.88,292.28C834.62,302.7 834.85,313.12 834.74,323.54C832.98,323.52 831.23,323.51 829.48,323.51Z" style="fill:white;fill-rule:nonzero;"/>
        <path d="M883.67,283.38C886.09,282.55 888.65,282.65 891.2,282.72C891.54,283.79 891.91,284.85 892.31,285.9C892.95,287.54 893.5,289.23 894.2,290.86C896.8,297.9 899.63,304.85 902.25,311.89C902.71,313.31 903.22,314.72 903.7,316.15C904.67,318.57 905.55,321.04 906.53,323.47C904.2,323.51 901.88,323.51 899.57,323.54C897.78,319.48 896.52,315.2 894.66,311.18C889.89,310.12 884.64,310.87 879.7,310.74C877.4,314.73 876.41,319.35 874.53,323.56C872.72,323.52 870.91,323.5 869.11,323.49C869.89,320.91 870.89,318.42 871.72,315.86C872.2,314.62 872.68,313.38 873.18,312.14C873.66,310.66 874.19,309.2 874.7,307.73C876.74,302.44 878.74,297.14 880.77,291.85C881.13,290.84 881.5,289.84 881.88,288.85C882.51,287.04 883.12,285.22 883.67,283.38M886.29,290.46C885.14,293.93 883.98,297.39 882.71,300.81C882.15,302.66 881.56,304.49 881.06,306.35C885,306.37 888.93,306.37 892.88,306.33C892.61,305.53 892.09,303.94 891.83,303.15C890.02,298.92 889.14,294.16 886.29,290.46Z" style="fill:white;fill-rule:nonzero;"/>
        <path d="M921.01,284.06C922.63,283.62 924.27,283.19 925.89,282.68C932.22,281.95 938.48,283.14 944.75,283.84C944.79,286.08 944.72,288.33 944.65,290.58C939.28,287.66 933.17,285.66 927.01,286.53C922.61,287.01 919.21,290.74 918.11,294.86C916.21,302.34 917.67,311.09 923.59,316.44C928.16,319.05 933.56,319.98 938.7,318.65C938.76,313.88 938.74,309.11 938.7,304.35C940.91,304.31 943.12,304.32 945.35,304.33C945.33,309.75 945.28,315.17 945.39,320.59C944.54,321.07 943.71,321.54 942.88,322.01C941.56,322.37 940.23,322.72 938.95,323.12C932.03,323.82 924.2,324.89 918.12,320.7C914.98,318.78 913.18,315.45 911.66,312.23C909.64,304.88 909.1,296.24 913.72,289.73C915.41,287.04 918.23,285.42 921.01,284.06Z" style="fill:white;fill-rule:nonzero;"/>
        <path d="M954.55,282.69C962.05,282.72 969.56,282.77 977.07,282.65C977.18,284.41 977.42,286.17 977.52,287.94C972.15,287.35 966.76,286.92 961.37,286.73C961.21,291.23 961.25,295.75 961.31,300.26C966.44,300.22 971.57,300.24 976.71,300.22C976.66,301.63 976.63,303.04 976.61,304.45C971.5,304.42 966.39,304.46 961.28,304.42C961.26,309.36 961.24,314.31 961.31,319.26C967.04,319.33 972.76,319.01 978.44,318.19C978.41,319.96 978.39,321.74 978.39,323.53C970.43,323.51 962.48,323.49 954.53,323.51C954.52,309.9 954.47,296.3 954.55,282.69Z" style="fill:white;fill-rule:nonzero;"/>
        <path d="M988.16,296.09C988.4,291.57 988.81,287.07 989.53,282.61C991.62,282.58 993.68,282.93 995.71,283.47C995.68,283.83 995.62,284.57 995.59,284.94C996.83,287.24 997.78,289.67 998.76,292.09C1000.85,296.74 1002.83,301.43 1004.97,306.06C1005.8,308.12 1006.54,310.24 1007.06,312.42C1007.71,312.49 1008.37,312.56 1009.05,312.64C1011.15,306.53 1014.33,300.86 1016.71,294.86C1017.56,292.95 1018.4,291.04 1019.22,289.12C1020.09,286.98 1021.05,284.88 1021.96,282.76C1023.43,282.73 1024.92,282.7 1026.42,282.69C1026.72,283.74 1027.04,284.78 1027.39,285.82C1027.59,289.82 1027.39,293.88 1028.28,297.81C1028.79,306.4 1029.51,314.96 1030.42,323.51C1028.16,323.51 1025.91,323.5 1023.66,323.49C1022.91,314.25 1022.11,305 1021.22,295.77C1020.38,297.46 1019.63,299.18 1018.86,300.89C1017.85,303.21 1016.84,305.52 1015.85,307.84C1013.73,313.12 1011.04,318.14 1009.01,323.46C1007.65,323.47 1006.29,323.48 1004.95,323.5C1003.19,318.87 1001,314.43 999.1,309.86C998.4,308.11 997.72,306.36 997.09,304.6L996.75,304.41C995.62,301.53 994.38,298.69 993.72,295.67C993.5,296.26 993.07,297.45 992.85,298.04C992.12,306.54 991.09,315.01 990.43,323.51C988.74,323.51 987.05,323.5 985.39,323.5C986.39,314.37 986.97,305.19 988.16,296.09Z" style="fill:white;fill-rule:nonzero;"/>
        <path d="M1056.31,323.53C1056.34,309.92 1056.2,296.31 1056.38,282.7C1058.47,282.71 1060.57,282.7 1062.69,282.69C1062.88,294.87 1062.75,307.05 1062.76,319.23C1068.32,319.38 1073.85,318.88 1079.37,318.24C1079.35,319.98 1079.34,321.72 1079.35,323.47C1071.67,323.55 1063.99,323.46 1056.31,323.53Z" style="fill:white;fill-rule:nonzero;"/>
        <path d="M1078.38,282.72C1089.44,282.71 1100.51,282.76 1111.58,282.69C1111.6,284.18 1111.64,285.67 1111.68,287.17C1107.26,287.17 1102.84,287.15 1098.44,287.16C1098.48,299.27 1098.45,311.38 1098.45,323.49C1096.13,323.49 1093.83,323.5 1091.54,323.5C1091.55,311.4 1091.5,299.31 1091.57,287.22C1087.15,287.12 1082.73,287.17 1078.32,287.18C1078.32,285.69 1078.34,284.2 1078.38,282.72Z" style="fill:white;fill-rule:nonzero;"/>
        <path d="M1171.64,282.7C1173.89,282.71 1176.14,282.71 1178.41,282.7C1180.04,286.45 1181.47,290.28 1182.77,294.16C1183.22,295.39 1183.71,296.63 1184.22,297.87C1184.71,299.28 1185.23,300.69 1185.74,302.12C1188.52,309.21 1191.34,316.28 1193.88,323.46C1191.49,323.5 1189.1,323.5 1186.74,323.47C1186.1,321.67 1185.42,319.88 1184.76,318.1C1184.25,316.68 1183.7,315.28 1183.15,313.89C1182.8,312.84 1182.47,311.79 1182.14,310.75C1176.97,310.64 1171.79,310.74 1166.63,310.65C1165.44,313.79 1164.29,316.94 1163.17,320.11C1162.8,321.22 1162.46,322.33 1162.14,323.45C1160.16,323.48 1158.18,323.49 1156.23,323.5C1158,318.61 1160,313.79 1161.73,308.88C1162.21,307.64 1162.67,306.4 1163.19,305.17C1163.49,304.16 1163.83,303.16 1164.21,302.17C1166.51,295.61 1169.01,289.13 1171.64,282.7M1173.78,289.79C1173.69,290.46 1173.52,291.8 1173.44,292.47L1172.69,292.48C1172.61,293.12 1172.45,294.39 1172.37,295.02C1171.81,296.26 1171.31,297.52 1170.84,298.79C1170.03,301.33 1169.12,303.84 1168.27,306.36C1172.25,306.38 1176.22,306.33 1180.21,306.37C1178.23,300.79 1176.26,295.18 1173.78,289.79Z" style="fill:white;fill-rule:nonzero;"/>
    </g>
</svg>
